<svg xmlns="http://www.w3.org/2000/svg" xmlns:xlink="http://www.w3.org/1999/xlink" width="1000" height="700" stroke="#000" stroke-linecap="round" stroke-linejoin="round" fill="#fff" fill-rule="evenodd"><g fill-rule="nonzero"><g stroke="none"><path d="M376.2754 494.0418h47.706v1.4468c3.3286-1.3466 6.7835-2.4782 10.3348-3.3177a47.047 47.047 0 0 1 10.9051-1.236c8.0141 0 15.4621 1.4475 22.3551 4.2476 6.8858 2.7983 12.9044 6.6268 17.9004 11.4956 5.1165 4.871 9.0039 10.5654 11.9006 17.0577s4.2263 13.359 4.2263 20.6213c.0775 7.089-1.3209 14.1238-4.1108 20.7184-2.6598 6.3161-6.6291 12.0835-11.6767 16.9761-4.9947 4.8616-11.0182 8.5276-17.9023 11.3967-6.8782 2.8696-14.4549 4.139-22.6841 4.139-4.3689.0325-8.7357-.3863-13.008-1.2362-4-.8311-7.9088-1.9717-11.6497-3.5235v22.2659h20.9093v26.9263h-71.2199v-26.9263h17.8979v-94.3357h-11.7923v-26.7305zm66.6185 24.1328c-4.39-.0256-8.7076 1.0836-12.4545 3.2088-3.9934 2.2718-7.3528 5.3989-9.791 9.1192v28.6863c2.3047 3.3963 5.4733 6.2117 9.2323 8.179 4.0027 2.0876 8.5322 3.1571 13.1192 3.102 3.524.0279 7.0062-.6438 10.2355-1.9708 3.2214-1.2415 5.9917-3.0985 8.4513-5.3853 2.3254-2.2817 4.3225-5.0802 5.6522-8.2985 1.4486-3.2821 2.1696-6.8065 2.1218-10.3583 0-4.1397-.6717-7.8665-2.1218-11.0845-1.2127-3.1174-3.1488-5.9434-5.6522-8.2936-2.3905-2.271-5.271-4.0382-8.4513-5.1801-3.2293-1.1407-6.6786-1.7609-10.3415-1.7609zm136.6881-24.1328h51.7112v74.8922h13.3218v26.9261h-46.3712v-8.6997c-3.8295 3.1814-8.2839 5.6423-13.1172 7.2526-4.9978 1.6569-10.7883 2.5871-17.3482 2.5871-5.8346.0151-11.6255-.8926-17.1247-2.6932-5.2183-1.7085-9.9936-4.4275-14.0097-7.9768-4.0005-3.5178-7.119-8.0777-9.3369-13.4621-2.3348-5.3914-3.4475-11.6305-3.4475-18.9591v-33.0404h-14.1567v-26.9222h48.2834v59.9732c0 6.8356 1.8902 11.9056 5.5655 15.3246 3.773 3.4127 8.571 5.0797 14.5686 5.0797 4.2256 0 7.9999-1.2403 11.4529-3.6284 3.4435-2.3874 5.8927-5.7013 7.4476-9.8508v-39.8712h-17.347zm156.4976 96.5229c-3.8917 2.0718-7.9054 3.6288-11.7845 4.5597s-8.0057 1.3499-12.018 1.3499c-8.4421 0-16.2289-1.3499-23.3526-4.0328-7.1289-2.6834-13.3185-6.4217-18.4643-11.1861-5.2072-4.822-9.3276-10.5619-12.1196-16.8867-2.9266-6.7074-4.3994-13.8868-4.3288-21.1295 0-7.1462 1.3299-13.9553 4.1103-20.195 2.6955-6.1795 6.6642-11.8133 11.6819-16.5741 4.9961-4.7691 11.0108-8.4893 17.8979-11.2876 7.0056-2.7919 14.5661-4.1427 22.6813-4.2476 4.6432.0284 9.2668.5149 13.7981 1.4475 4.0427.8803 7.9968 2.1317 11.7819 3.7266v-2.1677h32.0322v97.6698c0 8.5311-1.5524 16.0496-4.7753 22.266-2.9688 5.9729-7.298 11.2754-12.6794 15.539-5.4429 4.1988-11.7658 7.3036-18.5624 9.1179-7.0123 1.9674-14.4601 2.9985-22.1437 2.9985-9.5717 0-18.4678-1.2405-26.5793-3.6282-7.7284-2.2218-15.0397-5.539-21.6819-9.8394l13.3187-21.8607c4.9153 2.9193 10.2277 5.2189 15.7893 6.837 5.6578 1.6606 12.011 2.4823 19.0118 2.4823 3.775 0 7.3439-.4102 10.4516-1.1413 3.2232-.8289 5.9975-2.0714 8.3443-3.9383s4.2281-4.3395 5.5654-7.5575c1.3256-3.1016 1.9897-7.1515 1.9897-11.9102v-.4115zm-22.8031-21.3349c4.7172.0636 9.3536-1.1591 13.3421-3.5189 3.9936-2.2809 7.1153-5.3907 9.4567-9.3049l.2237-24.7525c-2.4422-4.1447-5.6611-7.3668-9.7928-9.8494-4.0397-2.3506-8.6973-3.6417-13.4585-3.7288-3.4472.0993-6.7851.7311-10.123 1.9699s-6.2261 2.8986-8.5787 5.1773c-2.442 2.2818-4.3226 4.8688-5.7817 7.8709s-2.1116 6.4164-2.1116 10.0782c0 3.9395.664 7.4592 2.1116 10.6649 1.3329 3.032 3.2494 5.8033 5.6737 8.1834 2.3244 2.278 5.2199 3.939 8.444 5.1754 3.3598 1.2637 6.9526 1.8966 10.5738 1.8629z" fill="#fff"/><path d="M744.6268 194.898c-.8195-21.4306 1.6561-40.423-6.5991-56.4913-19.8298-39.9359-69.3878-63.3161-168.5048-63.3161v3.4123h-2.0652 2.0652v-3.4123c-99.1111 0-151.1497 23.3802-170.9733 63.7998-7.8479 16.5591-7.0192 35.0644-8.264 56.4946-.8216 17.0439-7.4269 35.0618-4.5393 54.5415 3.3017 25.3303 4.5393 50.6489 7.8494 74.0222 2.4753 18.9959 24.7775 35.0733 26.8424 53.0933 5.7807 49.6714 49.5569 72.5636 148.6755 72.5636v3.897h-2.066 2.4753v-3.897c99.117 0 141.2472-22.8922 146.6164-72.5636 2.0586-18.5072 22.7083-34.0974 25.1909-53.0933 3.2966-23.3733 4.5402-48.6919 7.847-74.0222 2.8868-19.4797-3.7219-37.9859-4.5504-55.0285z" fill="#efcca3"/><g fill="#ccac8d"><path d="M567.8672 212.4281c17.7656.4872 30.1535 13.6337 41.7192 25.814 13.6312 14.1219 36.7587 23.8594 46.2505 36.0397 9.5025 12.1684 21.8906 24.3522 26.4303 43.3447 4.5517 18.9934 5.7802 43.3364 5.7802 49.6696s2.8948 4.8753 11.1558 0c19.4126-11.1965 40.8848-41.3972 40.8848-41.3972-2.4769 18.9924-23.5379 36.0385-25.6029 54.0602-4.9609 49.6789-45.8418 73.5429-147.028 73.5429h-.4092 2.4752"/><path d="M633.127 174.4385c3.7143 15.0964 16.9291 66.2391-8.6738 49.1926 0 0 10.7399 7.3012 17.3442 35.0654 7.0197 27.7527 23.9565 31.165 23.9565 31.165s27.6678 6.3335 48.317-14.6092c17.3475-17.5307 20.2319-48.7025 12.8044-72.5631-7.435-23.3767-20.6494-30.6852-40.0615-35.5562-19.404-5.3515-58.2317-9.7383-53.6868 7.3055z"/></g><path d="M645.9285 229.9635c0-23.745 16.206-42.86 36.3426-42.86s36.3458 19.115 36.3458 42.86-16.2118 42.8569-36.3458 42.8569-36.3426-19.1132-36.3426-42.8569z" fill="#000"/><use xlink:href="#B"/><path d="M626.9333 228.0125s32.6267 26.3021 50.3829 52.1079c17.7549 25.8138 17.3451 30.6878 17.3451 30.6878l-12.8035 6.8099s-18.1728-40.4194-40.4718-55.5158c-22.7175-15.0974-25.1927-27.7556-25.1927-27.7556z" fill="#efcca3"/><path d="M569.1125 212.4281c-17.7563.4872-30.9721 13.6337-42.9497 25.814-13.631 14.1219-37.578 23.8594-47.0789 36.0397-9.4992 12.1684-22.2962 24.3522-26.8466 43.3447-4.5422 18.9934-6.1895 43.3364-6.1895 49.6696s.8195 6.825-11.1592 0c-19.4032-10.7083-40.8811-41.3972-40.8811-41.3972 2.475 18.9924 23.5429 36.0385 25.6029 54.0602 5.7847 49.6789 46.6689 73.5429 147.852 73.5429h2.0592" fill="#ccac8d"/><path d="M664.9251 294.7308c-19.8219-28.7276-51.6209-55.5169-95.811-55.5169h-.414c-44.1909 0-75.9889 26.7893-95.8137 55.5169-20.6475 29.7135-18.9965 41.3973-18.9965 69.6493 0 102.2648 30.5613 73.0499 50.7963 85.706 20.6508 12.1829 42.1255 8.2874 64.0139 8.2874h.414c22.3014 0 43.362 3.4091 64.0116-8.7712 20.2352-12.1723 50.7974 18.018 50.7974-84.2504.4144-28.2484 1.652-40.9076-18.998-70.6211z" fill="#56332b"/><g fill="#442823"><path d="M567.0491 264.5386s-2.8947 47.2418-8.6738 56.4912l10.74-2.9242z"/><path d="M569.94 264.5386s2.8951 47.2418 8.6743 56.4912l-10.7399-2.9242z"/></g><path d="M535.2483 253.3404c-4.1311-11.2059 10.7384-29.2239 34.2749-29.7111 23.5405 0 38.408 18.0181 34.2783 29.7111-4.1297 11.6875-18.9959 15.0963-34.2783 15.5835-14.8675-.4872-30.148-3.896-34.2749-15.5835z" fill="#56332b"/><path d="M569.5264 264.5355c0-1.9472 14.0413-2.4344 21.4778-8.2724 0 0-15.2809 5.838-18.5925 3.4091-3.2961-1.9499-4.125-7.7959-4.125-7.7959s-1.2451 5.846-3.72 7.7959c-2.8888 1.9472-20.233-3.4091-20.233-3.4091l23.1262 8.2724c0 1.4627-.4183 6.3332-.4183 9.7456l1.6562 44.8049c2.4837 4.3778 1.6572-32.6361 1.6572-44.8049l-.8286-9.7456z" fill="#000"/></g><path d="M570.3515 329.7997c7.0236 0 19.4107 5.838 30.5668 15.0999-10.7373-14.1244-23.5432-23.8675-30.5668-23.8675-7.4292 0-23.128 10.712-34.2769 26.3021 11.5585-10.7209 26.4316-17.5345 34.2769-17.5345z" stroke="#4d4d4d" stroke-linejoin="miter" fill="#7f4a41" stroke-width="1.5981"/><g stroke="none"><g fill="#442823"><path d="M567.4628 416.0027c-15.6906 0-30.9804-5.8494-45.0136-10.2327-2.8948-.9755-5.7791 1.4592-8.6737.4872-26.0213-9.7342-47.0825-26.293-59.8856-47.2363v4.866c0 102.2715 30.5609 73.5439 50.8016 85.7149 20.6421 12.1748 42.1199 8.2842 64.0087 8.2842h.409c22.2989 0 43.3668 3.4034 64.0182-8.7713 20.2299-12.1721 50.7922 17.531 50.7922-84.7433 0-3.8878 0-7.7842.4101-11.1965-11.9682 22.892-33.8568 40.9102-61.1139 51.6196-2.4752.9755-8.2644-1.4589-10.7398-.9744-14.8631 5.846-28.0778 12.1826-45.0132 12.1826z"/><path d="M528.2283 360.967s-10.3281 36.5232-3.3042 52.5951l-9.4989-4.8661s7.0239-37.017 12.8031-47.729zm81.7742 0s10.3201 36.5232 3.305 52.5951l9.4924-4.8661s-7.4276-37.017-12.7974-47.729z"/></g><path d="M501.8 174.4385c-3.7234 15.0964-16.9357 66.2391 8.6707 49.1926 0 0-10.7372 7.3012-17.347 35.0654-6.6116 27.7527-23.9519 31.165-23.9519 31.165s-27.6667 6.3335-48.3242-14.6092c-17.3391-17.5307-20.2337-48.7025-12.7983-72.5631s20.6495-30.6852 40.055-35.5562c19.4125-5.3515 57.8189-9.7383 53.6957 7.3055z" fill="#ccac8d"/><path d="M569.1094 321.0356c11.1593 0 45.8514 28.2404 46.2615 62.8218v-1.9461c0-36.0398-28.0853-64.7753-46.2615-64.7753s-46.251 29.2182-46.251 64.7753v1.9461c.4092-34.5814 35.102-62.8218 46.251-62.8218z" fill="#000"/><path d="M573.3824 247.5014c-.8583-3.9179-.1232-7.5053 1.6515-8.0467s3.8868 2.1818 4.7465 6.0997.1191 7.5078-1.6536 8.0476-3.8889-2.1811-4.7444-6.1006zm-17.7999-2.1049c1.017-3.8656 3.2367-6.4622 4.9869-5.8204s2.3356 4.2658 1.3261 8.1294c-1.0222 3.8642-3.2512 6.4632-4.9926 5.8257-1.7494-.6427-2.3418-4.2659-1.3204-8.1347z" fill="#331712"/><path d="M418.3737 229.9635c0-23.745 16.2059-42.86 36.3426-42.86s36.3458 19.115 36.3458 42.86-16.2118 42.8569-36.3458 42.8569-36.3426-19.1132-36.3426-42.8569z" fill="#000"/><use xlink:href="#B" x="-208.5575"/></g><path d="M579.8506 230.4477c0-.488-9.4994 4.8705-11.9758 5.3574-2.4783-.4869-11.9772-5.8454-11.9772-5.3574h23.953z" stroke="#4d4d4d" stroke-linejoin="miter" fill="#7f4a41" stroke-width="1.5981"/><g stroke="none"><path d="M507.5792 228.0125s-32.6273 26.3021-50.3864 52.1079c-17.757 25.8138-17.3438 30.6878-17.3438 30.6878l12.8046 6.8099s18.1703-40.4194 40.4705-55.5158 25.1935-27.7556 25.1935-27.7556z" fill="#efcca3"/><g fill="#ccac8d"><path d="M436.1333 150.0885s-11.1491 36.0387-35.9308 51.1405c0 0 38.815-5.3563 35.9308-51.1405zm260.5899 0s11.1507 36.0387 35.933 51.1405c0 0-38.8242-5.3563-35.933-51.1405zm-70.6161 67.2124s-24.3619-30.2017-56.9879-31.1737c-.4187 0 .8183 0 .4091 0s.4092 0 .4092 0c-33.0378.972-56.9907 31.1737-56.9907 31.1737 28.4979-23.3779 52.8657-22.8899 56.9907-22.8899-.4092 0 27.666-.488 56.1696 22.8899zm-28.5036-63.3125s-12.383-20.4563-28.903-20.9435h.8278c-12.3956.4872-28.4979 20.9435-28.4979 20.9435 14.044-16.0695 28.4979-15.5812 28.4979-15.5812s13.6244-.4883 28.0752 15.5812zM454.718 303.4976s-19.4136 11.2082-33.4478 4.3832h-.4164c-12.3971-8.2804-18.5857-33.1109-18.5857-33.1109s12.388 43.8296 52.4499 28.7277zm226.3146 0s19.414 11.2082 33.4475 4.3832c16.5273-8.2804 19.0025-33.1109 19.0025-33.1109s-12.3939 43.8296-52.45 28.7277zM477.016 147.6505c10.738-2.4336 28.4962-2.9181 42.5394 2.438 17.7535 7.3111 3.3024 34.0888 7.0154 35.5515 3.7235 1.4592 8.6749-18.5053 41.7166-16.5588 33.4578 1.9496 37.1715 19.4806 41.7125 16.5588s-4.541-48.6955 45.4243-37.9895c0 0-52.4506-16.5555-49.9653 28.2544 0 0-30.1515-27.2788-72.2732-2.9241.4101 0 11.1489-41.8858-56.1697-25.3303zm182.9586 0c.8196 0 1.2343.4883 1.6473.4883.4188 0-.413-.4883-1.6473-.4883zm-.0049.005z"/><path d="M462.5652 87.753s-44.6106 66.238-51.2106 91.5554c-6.6072 25.8149-11.559 131.4997-17.3454 146.5966l-20.6514-104.2261 37.9968-108.5993zm209.7919 0s44.6106 66.238 51.2089 91.5554c6.6107 25.8149 11.5668 131.4997 17.347 146.5966l20.6498-104.2261-37.9968-108.5993z"/></g><path d="M670.2945 87.7518s47.9048 47.2407 61.9462 101.7861 8.259 120.7785 18.998 129.0589c15.2825 11.6872 32.625-57.9533 38.4068-65.2595 9.0882-11.6891 39.235-41.3978 41.3012-46.7535s-61.1225-86.6871-88.793-102.7597c-33.4528-18.5065-74.7512-19.966-71.8592-16.0723z" fill="#56332b"/><path d="M711.18 116.9735s56.5806 85.2304 55.753 191.3925l22.715-54.5425c-.4153 0-20.2382-69.6403-78.468-136.85z" fill="#442823"/><path d="M462.5636 87.7518s-47.91 47.2407-61.9484 101.7861-8.262 120.7785-18.9992 129.0589c-15.2782 11.6872-32.6264-57.9533-38.4065-65.2595-9.0841-11.6891-39.2337-41.3978-41.2979-46.7535s61.1201-86.6871 88.7925-102.7597c33.4506-18.5065 74.7498-19.966 71.8595-16.0723z" fill="#56332b"/><path d="M421.6812 116.9735s-56.5787 85.2304-55.7603 191.3925l-22.2981-54.5425s19.8232-69.6403 78.0584-136.85z" fill="#442823"/><path d="M391.1168 310.317s4.1289 26.3027 10.7399 34.5795c6.6043 8.2796 2.063-6.3281 2.063-6.3281s-7.024-4.3858-5.779-37.9919c1.2303-33.6017-7.0239 9.7405-7.0239 9.7405zm352.2744 0s-4.1295 26.3027-10.74 34.5795c-6.6042 8.2796-2.0661-6.3281-2.0661-6.3281s7.0264-4.3858 5.7817-37.9919c-1.2302-33.6017 7.0244 9.7405 7.0244 9.7405z" fill="#ccac8d"/><g fill="#442823"><use xlink:href="#C"/><use xlink:href="#C" x="-18.9972" y="23.3767"/><path d="M497.667 290.3536c0-2.16 1.4715-3.8996 3.3039-3.8996s3.3034 1.7396 3.3034 3.8996c0 2.154-1.4716 3.8963-3.3034 3.8963s-3.3039-1.7423-3.3039-3.8963z"/><use xlink:href="#C" x="80.5321"/><use xlink:href="#C" x="99.5299" y="23.3767"/><use xlink:href="#C" x="105.7243"/></g></g></g><defs ><path id="B" d="M663.2734 210.9623c0-6.1995 4.2381-11.1965 9.4989-11.1965 5.2676 0 9.4952 4.997 9.4952 11.1965 0 6.2114-4.2276 11.2083-9.4952 11.2083-5.2608 0-9.4989-4.9969-9.4989-11.2083z"/><path id="C" d="M522.8585 290.3536c0-2.16 1.4715-3.8996 3.3039-3.8996s3.3034 1.7396 3.3034 3.8996c0 2.154-1.4715 3.8963-3.3034 3.8963s-3.3039-1.7423-3.3039-3.8963z"/></defs></svg>